<!DOCTYPE svg PUBLIC "-//W3C//DTD SVG 20010904//EN" "http://www.w3.org/TR/2001/REC-SVG-20010904/DTD/svg10.dtd">
<svg version="1.0" xmlns="http://www.w3.org/2000/svg" width="362px" height="270px" viewBox="0 0 3620 2700" preserveAspectRatio="xMidYMid meet">
<g id="layer101" fill="#000000" stroke="none">
<path d="M0 1350 l0 -1350 1810 0 1810 0 0 1350 0 1350 -1810 0 -1810 0 0 -1350z"/>
</g>
<g id="layer102" fill="#dce0df" stroke="none">
<path d="M2065 2144 c-82 -7 -157 -15 -165 -18 -8 -2 91 -4 220 -4 331 -1 467 -18 637 -80 87 -32 151 -71 221 -136 51 -47 72 -83 72 -127 0 -31 -11 -45 -104 -125 -31 -27 -36 -37 -36 -75 0 -55 51 -166 114 -247 101 -132 326 -332 489 -436 71 -46 74 -40 5 10 -82 59 -213 189 -301 299 -98 122 -176 276 -184 363 -5 56 -4 59 38 110 95 115 102 133 79 211 -16 56 -51 98 -123 145 -135 90 -319 126 -627 125 -102 -1 -252 -7 -335 -15z"/>
<path d="M1818 2113 c6 -2 18 -2 25 0 6 3 1 5 -13 5 -14 0 -19 -2 -12 -5z"/>
<path d="M2050 1891 c0 -6 17 -12 38 -14 l37 -4 -37 -1 c-31 -2 -38 -6 -38 -22 0 -17 6 -20 48 -19 l47 2 -40 7 c-39 7 -39 7 -7 9 24 1 32 6 32 20 0 10 -7 22 -16 25 -24 9 -64 7 -64 -3z"/>
<path d="M2150 1865 c0 -19 5 -35 10 -35 6 0 10 16 10 35 0 19 -4 35 -10 35 -5 0 -10 -16 -10 -35z"/>
<path d="M2180 1862 c0 -35 3 -39 19 -35 11 3 27 13 36 23 9 10 23 16 31 13 9 -3 14 2 14 16 0 28 -8 27 -47 -11 l-33 -32 0 26 c0 15 -4 30 -10 33 -6 4 -10 -10 -10 -33z"/>
<path d="M2295 1889 c-4 -5 -4 -21 -1 -35 6 -21 12 -24 49 -23 l42 2 -35 6 c-50 9 -55 41 -6 41 20 0 36 5 36 10 0 13 -77 13 -85 -1z"/>
<path d="M2405 1884 c-9 -9 -14 -23 -11 -31 3 -8 6 -17 6 -19 0 -2 21 -3 48 -2 l47 1 -45 7 -45 7 38 1 c46 2 49 19 5 25 l-33 4 33 1 c17 1 32 7 32 12 0 16 -57 11 -75 -6z"/>
<path d="M2558 1894 c-5 -4 -8 -17 -8 -30 0 -12 -6 -25 -12 -27 -8 -3 -6 -6 5 -6 10 -1 20 5 23 13 8 20 1 60 -8 50z"/>
<path d="M2585 1891 c-3 -6 12 -12 32 -14 l38 -4 -38 -1 c-31 -2 -38 -6 -35 -19 3 -18 51 -33 76 -25 15 5 16 44 0 60 -14 14 -64 16 -73 3z m63 -48 c-10 -2 -26 -2 -35 0 -10 3 -2 5 17 5 19 0 27 -2 18 -5z"/>
<path d="M2685 1891 c-3 -6 12 -12 32 -14 l38 -4 -37 -1 c-21 -1 -38 -5 -38 -9 1 -19 18 -31 53 -35 36 -4 37 -3 37 28 0 20 -6 34 -16 38 -24 9 -62 7 -69 -3z m63 -48 c-10 -2 -26 -2 -35 0 -10 3 -2 5 17 5 19 0 27 -2 18 -5z"/>
<path d="M2790 1890 c0 -5 15 -11 33 -11 17 -1 24 -3 15 -6 -25 -6 -22 -21 5 -27 12 -2 5 -4 -15 -2 -38 2 -53 -9 -20 -16 39 -8 62 3 62 32 0 16 -7 30 -16 34 -25 9 -64 7 -64 -4z"/>
<path d="M595 1850 c-46 -17 -58 -61 -44 -159 12 -85 78 -280 134 -399 25 -52 45 -96 45 -97 0 -1 -57 17 -127 40 -136 46 -242 71 -339 80 -53 5 -48 2 51 -24 100 -26 267 -91 370 -143 127 -65 301 -205 419 -338 27 -30 40 -41 30 -25 -277 456 -404 710 -404 806 0 53 19 58 72 19 56 -41 114 -112 163 -201 40 -73 40 -73 104 -92 34 -10 65 -16 67 -14 3 2 -11 41 -31 85 -38 88 -46 123 -29 129 16 6 51 -45 104 -151 45 -89 45 -90 99 -108 30 -10 56 -17 58 -15 1 2 -28 64 -65 138 -101 202 -167 282 -233 282 -33 0 -69 -28 -69 -55 0 -30 -15 -21 -65 42 -112 140 -245 225 -310 200z"/>
<path d="M2260 1840 c0 -5 5 -10 10 -10 6 0 10 5 10 10 0 6 -4 10 -10 10 -5 0 -10 -4 -10 -10z"/>
<path d="M1140 1740 c0 -52 -7 -58 -40 -38 -24 15 -37 4 -20 -17 14 -17 150 -22 150 -5 0 6 -13 10 -30 10 -29 0 -30 1 -30 50 0 38 -4 50 -15 50 -11 0 -15 -12 -15 -50z"/>
<path d="M1242 1745 c8 -67 19 -75 99 -75 l69 0 0 40 c0 61 -25 80 -106 80 l-67 0 5 -45z m136 -22 c3 -33 3 -33 -40 -33 -49 0 -68 13 -68 48 0 22 3 23 53 20 51 -3 52 -4 55 -35z"/>
<path d="M1430 1730 c0 -47 3 -60 15 -60 8 0 15 9 15 20 0 17 7 20 50 20 43 0 50 -3 50 -20 0 -11 7 -20 15 -20 12 0 15 13 15 60 0 47 -3 60 -15 60 -9 0 -15 -9 -15 -25 0 -23 -3 -25 -50 -25 -47 0 -50 2 -50 25 0 16 -6 25 -15 25 -12 0 -15 -13 -15 -60z"/>
<path d="M1610 1752 c0 -21 7 -48 16 -60 13 -19 24 -22 86 -22 l71 0 -6 47 c-7 60 -24 73 -104 73 l-63 0 0 -38z m134 -8 c16 -42 8 -54 -37 -54 -48 0 -67 13 -67 47 0 21 5 23 49 23 35 0 51 -4 55 -16z"/>
<path d="M1800 1730 c0 -47 3 -60 15 -60 8 0 15 9 15 20 0 15 7 20 28 20 16 0 32 -8 40 -20 7 -11 22 -20 34 -20 20 0 20 1 4 19 -17 18 -17 20 3 40 24 24 28 61 7 61 -8 0 -16 -10 -18 -22 -3 -20 -10 -23 -50 -26 -46 -3 -48 -2 -48 22 0 16 -6 26 -15 26 -12 0 -15 -13 -15 -60z"/>
<path d="M2006 1777 c-11 -8 -20 -31 -23 -60 -5 -39 -3 -47 11 -47 11 0 16 9 16 33 0 43 15 57 62 57 l38 0 0 -45 c0 -33 4 -45 15 -45 12 0 15 13 15 60 l0 60 -58 0 c-32 0 -66 -6 -76 -13z"/>
<path d="M2260 1772 c-28 -23 -41 -102 -16 -102 11 0 16 9 16 26 0 46 17 64 60 64 l40 0 0 -45 c0 -33 4 -45 15 -45 12 0 15 13 15 60 l0 60 -54 0 c-36 0 -61 -6 -76 -18z"/>
<path d="M2410 1730 c0 -54 2 -60 21 -60 26 0 57 16 92 48 l27 26 0 -37 c0 -26 4 -37 15 -37 12 0 15 13 15 60 0 38 -4 60 -11 60 -7 0 -34 -20 -60 -45 -26 -25 -53 -45 -59 -45 -5 0 -10 20 -10 45 0 33 -4 45 -15 45 -12 0 -15 -13 -15 -60z"/>
<path d="M2600 1730 c0 -54 2 -60 20 -60 19 0 20 6 19 60 -2 51 -5 60 -20 60 -16 0 -19 -8 -19 -60z"/>
<path d="M2696 1735 c-41 -62 -42 -65 -22 -65 8 0 26 19 39 41 l25 41 24 -41 c13 -23 31 -41 41 -41 14 0 11 10 -20 60 -21 33 -41 60 -44 60 -3 0 -23 -25 -43 -55z"/>
<path d="M2840 1775 c0 -8 5 -15 10 -15 6 0 10 7 10 15 0 8 -4 15 -10 15 -5 0 -10 -7 -10 -15z"/>
<path d="M1691 1610 c-63 -3 -116 -9 -118 -15 -1 -5 28 -66 65 -135 l67 -125 82 -3 82 -3 136 -266 c75 -146 134 -268 131 -270 -2 -3 -60 13 -128 35 -67 23 -171 48 -229 56 -114 17 -288 20 -354 7 -38 -8 -36 -9 25 -10 260 -5 662 -128 863 -265 21 -14 40 -26 42 -26 2 0 -23 46 -54 103 -32 56 -154 284 -271 507 -116 223 -215 407 -218 410 -4 3 -58 3 -121 0z m96 -117 c57 -111 60 -123 30 -123 -27 0 -54 35 -106 138 l-31 62 34 0 c32 0 35 -4 73 -77z"/>
<path d="M2212 1613 c-52 -3 -75 -8 -78 -18 -6 -16 96 -210 128 -245 14 -15 31 -20 67 -20 26 0 83 -3 126 -7 l78 -6 -79 151 -79 152 -45 -2 c-25 -1 -78 -4 -118 -5z m141 -142 c26 -49 47 -92 47 -96 0 -3 -12 -5 -27 -3 -23 2 -36 17 -75 88 -26 47 -48 88 -48 93 0 4 12 7 28 7 24 0 32 -10 75 -89z"/>
<path d="M1230 1503 l58 -108 47 -3 c26 -2 45 0 43 5 -2 4 -27 54 -56 111 l-52 102 -49 0 -49 0 58 -107z"/>
<path d="M1292 1602 c10 -24 152 -289 161 -300 8 -10 14 -9 31 7 16 15 38 21 90 23 103 4 104 12 29 155 l-61 118 -46 3 c-25 2 -46 1 -46 -2 0 -2 27 -55 60 -116 33 -61 60 -114 60 -116 0 -3 -15 -4 -32 -2 -31 3 -37 11 -96 121 l-63 117 -45 0 c-25 0 -44 -4 -42 -8z"/>
<path d="M1842 1601 c2 -5 41 -79 87 -164 l84 -156 19 24 c17 22 27 25 83 25 117 0 119 10 34 168 l-60 112 -44 0 c-25 0 -45 -2 -45 -5 0 -3 27 -55 60 -116 33 -60 60 -112 60 -115 0 -3 -15 -4 -32 -2 -31 3 -37 11 -96 121 l-63 117 -45 0 c-25 0 -44 -4 -42 -9z"/>
<path d="M2420 1594 c0 -16 142 -294 150 -293 3 0 18 16 34 35 l29 35 -47 88 c-25 49 -46 93 -46 100 0 6 11 11 25 11 22 0 32 -15 86 -122 34 -68 63 -125 65 -127 3 -3 19 9 37 27 l32 32 -49 91 c-34 63 -45 94 -38 101 7 7 32 -32 81 -131 39 -77 71 -143 71 -146 0 -3 -16 -5 -35 -5 -33 0 -35 -2 -25 -20 8 -15 21 -20 50 -20 38 0 40 -1 77 -72 l38 -73 48 -3 48 -3 -36 70 c-19 39 -35 73 -35 76 0 3 12 5 26 5 20 0 25 4 20 16 -3 9 -6 18 -6 20 0 2 -16 4 -35 4 -35 0 -35 0 -105 140 l-70 140 36 0 c29 0 35 3 30 16 -3 9 -6 18 -6 20 0 2 -101 4 -225 4 -197 0 -225 -2 -225 -16z"/>
<path d="M1332 1368 c-18 -18 -14 -62 8 -86 37 -39 80 -23 80 30 0 50 -58 86 -88 56z"/>
</g>
<g id="layer103" fill="#e1dfe0" stroke="none">
<path d="M1940 2129 c-34 -6 -33 -6 13 -8 46 -1 59 3 35 11 -7 2 -29 1 -48 -3z"/>
<path d="M2294 1868 c3 -13 6 -26 6 -30 0 -5 19 -7 43 -7 34 2 36 3 12 6 -37 6 -55 20 -48 39 3 8 0 14 -7 14 -8 0 -10 -8 -6 -22z"/>
<path d="M1161 1788 c-7 -16 -7 -34 0 -71 6 -37 6 -38 -21 -32 -16 3 -31 2 -35 -4 -4 -7 16 -11 59 -11 37 0 66 4 66 10 0 6 -13 10 -29 10 -29 0 -30 2 -34 53 -2 28 -5 49 -6 45z"/>
<path d="M1257 1779 c-21 -12 -22 -52 -2 -72 8 -8 11 -18 7 -22 -4 -5 -2 -5 4 -2 8 4 9 20 4 46 -5 27 -3 42 4 44 6 2 9 7 6 10 -3 3 -13 1 -23 -4z"/>
<path d="M1449 1788 c-6 -12 -4 -48 2 -48 5 0 9 11 9 25 0 21 -6 33 -11 23z"/>
<path d="M2710 1748 c-13 -24 -23 -44 -22 -45 4 -6 17 2 15 10 -2 4 2 7 8 7 5 0 8 4 5 9 -3 5 0 11 7 14 20 8 32 7 32 0 1 -26 32 -73 48 -73 17 0 17 2 -3 30 -12 17 -26 30 -31 30 -5 0 -8 3 -7 8 3 12 -13 52 -21 52 -4 0 -18 -19 -31 -42z m30 18 c0 -3 -5 -8 -12 -12 -7 -4 -8 -3 -4 4 7 12 16 16 16 8z m45 -56 c3 -5 4 -10 1 -10 -3 0 -8 5 -11 10 -3 6 -4 10 -1 10 3 0 8 -4 11 -10z"/>
<path d="M1720 1768 c0 -5 7 -7 16 -4 8 3 13 2 10 -2 -3 -5 -1 -24 3 -43 l8 -34 -56 5 c-55 5 -56 6 -59 38 -4 35 -24 40 -30 7 -3 -10 0 -15 7 -11 7 5 10 -1 8 -16 -1 -14 3 -22 11 -20 6 1 12 -2 12 -8 0 -6 29 -10 66 -10 l67 0 -6 45 c-2 26 -7 48 -9 51 -11 10 -48 12 -48 2z"/>
<path d="M1801 1725 c-1 -47 1 -55 16 -55 11 0 14 3 7 8 -7 4 -11 28 -10 55 1 26 -1 47 -5 47 -3 0 -7 -25 -8 -55z"/>
<path d="M2000 1765 c-7 -8 -10 -21 -7 -30 4 -8 2 -17 -3 -20 -17 -10 -11 -45 6 -45 14 0 16 8 12 45 -4 29 -2 42 5 38 6 -4 7 -1 2 7 -6 9 -1 10 16 5 19 -5 21 -4 9 4 -20 14 -25 14 -40 -4z"/>
<path d="M2324 1768 c-4 -7 -3 -8 4 -4 7 4 12 9 12 12 0 8 -9 4 -16 -8z"/>
<path d="M2413 1764 c-3 -9 -1 -26 6 -37 9 -14 10 -22 2 -30 -6 -6 -11 -15 -11 -19 0 -14 38 -9 54 8 9 8 16 13 16 9 0 -4 11 3 26 14 14 11 24 22 22 24 -2 3 6 14 16 26 11 12 16 21 13 21 -10 0 -67 -62 -67 -72 0 -5 -4 -7 -9 -3 -5 3 -16 -2 -24 -10 -23 -22 -24 -20 -19 35 3 34 1 50 -7 50 -6 0 -14 -7 -18 -16z"/>
<path d="M2110 1713 c0 -23 4 -43 9 -43 15 0 20 27 8 39 -8 8 -8 14 1 23 16 16 15 25 -3 25 -11 0 -15 -12 -15 -44z"/>
<path d="M1574 1599 c-3 -6 -1 -16 5 -22 8 -8 11 -6 11 6 0 16 11 17 114 15 63 -2 112 0 109 5 -7 12 -231 8 -239 -4z"/>
<path d="M2427 1604 c-3 -3 -1 -19 5 -35 6 -17 12 -28 14 -26 3 2 0 16 -5 31 l-11 26 136 0 c128 0 136 -1 123 -17 -13 -17 -13 -17 7 0 15 12 37 17 85 16 35 0 58 -3 51 -6 -19 -7 -4 -23 24 -23 26 0 31 9 12 28 -9 9 -72 12 -223 12 -117 0 -214 -3 -218 -6z"/>
<path d="M3036 1495 c3 -22 12 -47 20 -55 13 -13 14 -13 9 5 -4 11 -11 29 -15 40 -5 11 -11 27 -14 35 -3 8 -3 -3 0 -25z"/>
<path d="M2834 1497 c3 -10 6 -25 6 -32 0 -7 7 -15 14 -18 17 -7 11 16 -12 48 -12 17 -14 18 -8 2z"/>
<path d="M1739 1435 c5 -11 17 -29 26 -40 l16 -20 -10 20 c-5 11 -17 29 -26 40 l-16 20 10 -20z"/>
<path d="M2660 1431 c0 -5 5 -13 10 -16 6 -3 10 -2 10 4 0 5 -4 13 -10 16 -5 3 -10 2 -10 -4z"/>
<path d="M1485 1393 c12 -24 14 -53 4 -58 -5 -4 -14 -16 -20 -28 -7 -15 -3 -13 14 7 13 17 39 35 58 41 18 6 34 17 35 23 1 7 0 8 -3 2 -8 -17 -65 -11 -80 8 -8 9 -12 11 -8 5z"/>
<path d="M1818 1333 c7 -3 16 -2 19 1 4 3 -2 6 -13 5 -11 0 -14 -3 -6 -6z"/>
<path d="M213 1313 c4 -3 10 -3 14 0 3 4 0 7 -7 7 -7 0 -10 -3 -7 -7z"/>
<path d="M270 1307 c3 -2 40 -15 82 -26 53 -15 83 -19 95 -13 15 9 14 10 -3 16 -36 11 -181 31 -174 23z"/>
<path d="M2790 1270 c8 -15 21 -20 51 -20 28 0 39 4 36 13 -2 6 -11 11 -20 11 -9 -1 -14 2 -11 7 3 5 -11 9 -31 9 -33 0 -35 -2 -25 -20z"/>
<path d="M462 1263 c-16 -6 -5 -23 16 -23 14 0 14 2 3 9 -11 7 -10 10 5 14 11 3 13 5 4 5 -8 0 -21 -2 -28 -5z"/>
<path d="M996 925 c54 -55 112 -116 127 -135 l28 -35 -18 33 c-10 18 -29 45 -43 61 -14 15 -25 32 -23 38 2 5 -3 16 -12 23 -12 10 -15 10 -15 -1 0 -7 -21 7 -47 32 -96 90 -94 81 3 -16z"/>
<path d="M1430 890 c-32 -10 79 -11 170 0 61 6 58 7 -40 7 -58 1 -116 -3 -130 -7z"/>
<path d="M1880 850 c0 -5 4 -10 9 -10 6 0 13 5 16 10 3 6 -1 10 -9 10 -9 0 -16 -4 -16 -10z"/>
<path d="M2235 674 c22 -23 117 -85 122 -80 3 2 -4 10 -15 17 -11 7 -18 18 -16 24 3 7 -3 18 -13 26 -16 13 -17 12 -5 -3 8 -10 9 -19 3 -22 -5 -4 -14 2 -20 11 -6 10 -11 15 -11 10 0 -4 -12 0 -27 10 -16 9 -23 12 -18 7z"/>
</g>
<g id="layer104" fill="#eff1f1" stroke="none">
<path d="M2348 2153 c34 -2 90 -2 125 0 34 2 6 3 -63 3 -69 0 -97 -1 -62 -3z"/>
<path d="M2045 2140 c-22 -3 -35 -8 -29 -12 15 -10 253 -7 259 3 10 16 -134 21 -230 9z"/>
<path d="M2573 2143 c4 -3 10 -3 14 0 3 4 0 7 -7 7 -7 0 -10 -3 -7 -7z"/>
<path d="M2623 2143 c9 -2 25 -2 35 0 9 3 1 5 -18 5 -19 0 -27 -2 -17 -5z"/>
<path d="M1940 2130 l-35 -7 43 -2 c27 0 41 3 37 9 -3 6 -7 9 -8 9 -1 -1 -18 -5 -37 -9z"/>
<path d="M2703 2133 c9 -2 23 -2 30 0 6 3 -1 5 -18 5 -16 0 -22 -2 -12 -5z"/>
<path d="M2311 2126 c7 -8 98 -10 105 -3 4 4 -19 7 -51 7 -32 0 -56 -2 -54 -4z"/>
<path d="M2768 2123 c7 -3 16 -2 19 1 4 3 -2 6 -13 5 -11 0 -14 -3 -6 -6z"/>
<path d="M1833 2113 c4 -3 10 -3 14 0 3 4 0 7 -7 7 -7 0 -10 -3 -7 -7z"/>
<path d="M2450 2116 c0 -8 61 -12 66 -4 3 4 -11 8 -30 8 -20 0 -36 -2 -36 -4z"/>
<path d="M2808 2113 c7 -3 16 -2 19 1 4 3 -2 6 -13 5 -11 0 -14 -3 -6 -6z"/>
<path d="M2548 2103 c7 -3 16 -2 19 1 4 3 -2 6 -13 5 -11 0 -14 -3 -6 -6z"/>
<path d="M2843 2103 c4 -3 10 -3 14 0 3 4 0 7 -7 7 -7 0 -10 -3 -7 -7z"/>
<path d="M2598 2093 c7 -3 16 -2 19 1 4 3 -2 6 -13 5 -11 0 -14 -3 -6 -6z"/>
<path d="M2878 2093 c7 -3 16 -2 19 1 4 3 -2 6 -13 5 -11 0 -14 -3 -6 -6z"/>
<path d="M2638 2083 c7 -3 16 -2 19 1 4 3 -2 6 -13 5 -11 0 -14 -3 -6 -6z"/>
<path d="M2920 2080 c8 -5 20 -10 25 -10 6 0 3 5 -5 10 -8 5 -19 10 -25 10 -5 0 -3 -5 5 -10z"/>
<path d="M2678 2073 c7 -3 16 -2 19 1 4 3 -2 6 -13 5 -11 0 -14 -3 -6 -6z"/>
<path d="M2713 2063 c4 -3 10 -3 14 0 3 4 0 7 -7 7 -7 0 -10 -3 -7 -7z"/>
<path d="M2960 2066 c0 -3 14 -12 30 -21 17 -9 30 -13 30 -11 0 3 -13 12 -30 21 -16 9 -30 13 -30 11z"/>
<path d="M2743 2053 c4 -3 10 -3 14 0 3 4 0 7 -7 7 -7 0 -10 -3 -7 -7z"/>
<path d="M2800 2030 c8 -5 20 -10 25 -10 6 0 3 5 -5 10 -8 5 -19 10 -25 10 -5 0 -3 -5 5 -10z"/>
<path d="M2844 2018 c-4 -7 -3 -8 4 -4 7 4 12 9 12 12 0 8 -9 4 -16 -8z"/>
<path d="M3035 2020 c3 -5 8 -10 11 -10 3 0 2 5 -1 10 -3 6 -8 10 -11 10 -3 0 -2 -4 1 -10z"/>
<path d="M2865 2000 c3 -5 8 -10 11 -10 3 0 2 5 -1 10 -3 6 -8 10 -11 10 -3 0 -2 -4 1 -10z"/>
<path d="M3060 2007 c0 -2 15 -16 33 -33 l32 -29 -29 33 c-28 30 -36 37 -36 29z"/>
<path d="M2890 1987 c0 -3 17 -17 37 -33 20 -15 33 -23 29 -16 -8 13 -66 56 -66 49z"/>
<path d="M2995 1900 c47 -55 48 -56 37 -35 -6 11 -23 31 -39 45 l-28 25 30 -35z"/>
<path d="M3130 1910 c0 -7 3 -10 7 -7 3 4 3 10 0 14 -4 3 -7 0 -7 -7z"/>
<path d="M2050 1890 c0 -5 15 -10 34 -10 24 0 36 -5 39 -17 4 -14 5 -13 6 3 0 12 -6 25 -15 28 -25 9 -64 7 -64 -4z"/>
<path d="M2153 1865 c0 -22 2 -30 4 -17 2 12 2 30 0 40 -3 9 -5 -1 -4 -23z"/>
<path d="M2180 1862 c0 -35 3 -39 19 -35 11 3 27 13 36 23 9 10 23 16 31 13 10 -4 12 0 8 11 -8 22 -13 20 -46 -11 l-28 -27 0 27 c0 14 -4 29 -10 32 -6 4 -10 -10 -10 -33z"/>
<path d="M2325 1890 c-4 -6 7 -10 24 -10 17 0 31 5 31 10 0 6 -11 10 -24 10 -14 0 -28 -4 -31 -10z"/>
<path d="M2405 1884 c-9 -9 -14 -23 -11 -31 3 -8 6 -17 6 -19 0 -2 21 -3 48 -2 l47 1 -42 4 c-35 3 -43 8 -43 24 0 15 7 19 35 19 19 0 35 5 35 10 0 16 -57 11 -75 -6z"/>
<path d="M2553 1884 c-3 -8 -1 -20 6 -27 8 -8 11 -4 11 16 0 30 -7 35 -17 11z"/>
<path d="M2585 1890 c-3 -5 3 -10 15 -10 12 0 18 5 15 10 -3 6 -10 10 -15 10 -5 0 -12 -4 -15 -10z"/>
<path d="M2635 1890 c-3 -5 1 -10 9 -10 9 0 16 -9 16 -20 0 -15 -7 -20 -29 -20 -16 0 -32 5 -34 10 -3 6 -4 5 -3 -2 3 -14 44 -27 64 -20 6 2 12 14 12 27 0 26 -25 52 -35 35z"/>
<path d="M2685 1890 c-4 -6 10 -10 34 -10 34 0 41 -3 41 -20 0 -15 -7 -20 -29 -20 -16 0 -32 5 -34 10 -3 6 -4 5 -3 -2 1 -7 19 -16 39 -19 36 -6 37 -5 37 27 0 20 -6 34 -16 38 -24 9 -62 7 -69 -4z"/>
<path d="M2790 1890 c0 -5 16 -10 35 -10 29 0 35 -4 35 -21 0 -18 -5 -21 -36 -17 -29 3 -33 2 -20 -8 9 -6 27 -9 41 -6 20 3 25 10 25 32 0 16 -7 30 -16 34 -25 9 -64 7 -64 -4z"/>
<path d="M3141 1874 c0 -11 3 -14 6 -6 3 7 2 16 -1 19 -3 4 -6 -2 -5 -13z"/>
<path d="M588 1844 c-26 -14 -47 -58 -34 -71 3 -4 6 3 6 15 0 31 27 52 68 53 30 0 33 2 17 9 -26 11 -26 11 -57 -6z"/>
<path d="M2050 1846 c0 -13 10 -16 48 -14 40 1 42 2 12 5 -19 3 -41 9 -47 15 -10 8 -13 6 -13 -6z"/>
<path d="M2300 1846 c0 -12 9 -16 43 -15 34 2 36 3 12 6 -16 3 -36 9 -42 15 -10 8 -13 6 -13 -6z"/>
<path d="M673 1833 c4 -3 10 -3 14 0 3 4 0 7 -7 7 -7 0 -10 -3 -7 -7z"/>
<path d="M2538 1833 c7 -3 16 -2 19 1 4 3 -2 6 -13 5 -11 0 -14 -3 -6 -6z"/>
<path d="M3046 1827 c3 -10 9 -15 12 -12 3 3 0 11 -7 18 -10 9 -11 8 -5 -6z"/>
<path d="M705 1820 c3 -5 8 -10 11 -10 3 0 2 5 -1 10 -3 6 -8 10 -11 10 -3 0 -2 -4 1 -10z"/>
<path d="M810 1730 c47 -47 87 -84 89 -82 7 4 -87 98 -134 135 -22 17 -2 -7 45 -53z"/>
<path d="M3140 1790 c0 -7 3 -10 7 -7 3 4 3 10 0 14 -4 3 -7 0 -7 -7z"/>
<path d="M1164 1732 c1 -52 1 -52 -26 -47 -14 4 -29 1 -33 -4 -4 -7 16 -11 59 -11 37 0 66 4 66 10 0 6 -13 10 -29 10 -28 0 -30 2 -34 48 -4 47 -4 47 -3 -6z"/>
<path d="M2568 1730 c-1 -33 0 -60 5 -60 4 0 7 27 7 60 0 77 -7 77 -12 0z"/>
<path d="M2618 1745 c2 -28 -1 -51 -8 -60 -10 -12 -9 -15 9 -15 20 0 21 5 20 60 -1 39 -6 60 -14 60 -8 0 -11 -14 -7 -45z"/>
<path d="M2710 1748 c-13 -24 -23 -44 -22 -45 4 -6 17 2 15 10 -2 4 2 7 8 7 5 0 8 4 5 9 -3 5 1 12 10 15 8 3 12 10 9 16 -3 5 -1 10 4 10 9 0 15 -14 9 -22 -6 -9 25 -47 34 -42 8 5 6 11 -4 18 -8 6 -16 16 -17 21 -4 24 -13 45 -20 45 -4 0 -18 -19 -31 -42z"/>
<path d="M2840 1780 c0 -5 5 -10 10 -10 6 0 10 5 10 10 0 6 -4 10 -10 10 -5 0 -10 -4 -10 -10z"/>
<path d="M3060 1780 c0 -7 3 -10 7 -7 3 4 3 10 0 14 -4 3 -7 0 -7 -7z"/>
<path d="M1247 1773 c-12 -11 -7 -51 8 -66 8 -8 11 -18 7 -22 -4 -5 -2 -5 4 -2 8 4 9 20 4 47 -8 44 -13 54 -23 43z"/>
<path d="M1360 1770 c0 -5 3 -9 8 -7 9 3 12 -6 12 -43 0 -29 -2 -30 -44 -30 -25 0 -48 -4 -51 -10 -4 -6 19 -10 62 -9 37 1 61 3 52 6 -14 3 -15 11 -8 41 5 23 4 41 -3 49 -12 15 -28 17 -28 3z"/>
<path d="M1443 1760 c1 -11 5 -20 9 -20 4 0 8 9 8 20 0 11 -4 20 -9 20 -6 0 -9 -9 -8 -20z"/>
<path d="M1561 1763 c-1 -19 -8 -22 -48 -25 -59 -4 -63 -22 -6 -26 34 -3 44 1 53 18 6 12 9 29 7 38 -3 12 -5 11 -6 -5z"/>
<path d="M1720 1770 c0 -4 6 -10 14 -13 7 -3 15 -20 18 -39 l3 -33 -55 5 c-54 5 -55 6 -58 38 -4 44 -17 40 -16 -6 0 -23 5 -36 12 -34 7 1 12 -2 12 -8 0 -6 28 -10 65 -10 l65 0 0 33 c0 18 -6 42 -14 52 -14 19 -46 30 -46 15z m35 -10 c3 -5 4 -10 1 -10 -3 0 -8 5 -11 10 -3 6 -4 10 -1 10 3 0 8 -4 11 -10z"/>
<path d="M1801 1725 c-1 -30 2 -55 6 -55 5 0 8 25 8 55 0 30 -3 55 -6 55 -3 0 -7 -25 -8 -55z"/>
<path d="M1930 1767 c0 -10 -10 -21 -22 -26 l-22 -8 22 -5 c28 -8 47 15 33 39 -10 17 -10 17 -11 0z m10 -21 c0 -3 -5 -8 -12 -12 -7 -4 -8 -3 -4 4 7 12 16 16 16 8z"/>
<path d="M2001 1766 c-7 -8 -9 -27 -7 -42 3 -15 0 -34 -6 -41 -8 -10 -6 -13 7 -13 15 0 17 7 13 45 -4 29 -2 42 5 38 6 -4 7 -1 2 7 -6 9 -1 10 16 5 19 -5 21 -4 9 4 -20 14 -25 14 -39 -3z"/>
<path d="M2250 1765 c-6 -8 -14 -32 -17 -55 -5 -34 -3 -40 12 -40 15 0 17 7 13 45 -4 29 -2 42 5 38 6 -4 7 -1 2 7 -6 9 -1 10 16 5 19 -5 21 -4 9 4 -20 14 -25 14 -40 -4z"/>
<path d="M2380 1731 c0 -30 -5 -51 -12 -54 -8 -3 -6 -6 5 -6 14 -1 17 8 17 54 0 30 -2 55 -5 55 -3 0 -5 -22 -5 -49z"/>
<path d="M2417 1774 c-4 -4 -3 -12 0 -17 11 -18 12 -56 2 -62 -5 -4 -9 -10 -9 -16 0 -15 37 -10 54 7 9 8 16 13 16 9 0 -4 11 3 26 14 14 11 24 22 22 24 -2 3 6 14 16 26 11 12 16 21 13 21 -10 0 -67 -62 -67 -72 0 -5 -4 -7 -9 -3 -5 3 -16 -2 -24 -10 -23 -22 -24 -20 -19 35 4 46 -3 61 -21 44z"/>
<path d="M3120 1755 c-7 -8 -17 -12 -23 -8 -6 4 -7 1 -2 -6 4 -8 -6 -27 -26 -49 -19 -20 -23 -28 -10 -17 25 21 86 95 78 95 -2 0 -10 -7 -17 -15z"/>
<path d="M548 1753 c-2 -5 -1 -24 3 -43 l6 -35 2 43 c1 39 -3 52 -11 35z"/>
<path d="M2111 1718 c-1 -27 3 -48 7 -48 4 0 6 17 4 38 -5 58 -10 62 -11 10z"/>
<path d="M3032 1722 l-23 -37 26 28 c14 15 25 32 25 38 0 14 -3 11 -28 -29z"/>
<path d="M1835 1730 c-7 -12 19 -25 33 -16 5 3 19 -6 30 -19 12 -14 27 -25 32 -25 6 0 -5 16 -24 35 -36 35 -59 44 -71 25z"/>
<path d="M1402 1710 c0 -14 2 -19 5 -12 2 6 2 18 0 25 -3 6 -5 1 -5 -13z"/>
<path d="M1070 1701 c0 -17 18 -21 24 -6 3 9 0 15 -9 15 -8 0 -15 -4 -15 -9z"/>
<path d="M1444 1690 c0 -11 4 -20 8 -20 4 0 8 9 8 20 0 11 -4 20 -8 20 -4 0 -8 -9 -8 -20z"/>
<path d="M1561 1693 c-1 -16 5 -23 17 -23 10 0 13 3 6 8 -6 4 -14 14 -17 22 -4 10 -6 8 -6 -7z"/>
<path d="M2785 1690 c-3 -5 1 -13 10 -16 22 -9 29 1 11 15 -10 8 -16 9 -21 1z"/>
<path d="M2665 1680 c-3 -5 1 -10 10 -10 9 0 13 5 10 10 -3 6 -8 10 -10 10 -2 0 -7 -4 -10 -10z"/>
<path d="M2984 1678 c-4 -7 -3 -8 4 -4 12 7 16 16 8 16 -3 0 -8 -5 -12 -12z"/>
<path d="M562 1650 c0 -14 2 -19 5 -12 2 6 2 18 0 25 -3 6 -5 1 -5 -13z"/>
<path d="M2939 1643 l-24 -28 28 24 c25 23 32 31 24 31 -2 0 -14 -12 -28 -27z"/>
<path d="M986 1638 c-9 -12 -16 -29 -16 -38 1 -8 7 -1 15 17 7 17 22 33 32 36 15 4 15 5 1 6 -9 0 -24 -9 -32 -21z"/>
<path d="M1048 1653 c7 -3 16 -2 19 1 4 3 -2 6 -13 5 -11 0 -14 -3 -6 -6z"/>
<path d="M729 1633 c-13 -16 -12 -17 4 -4 14 11 23 12 45 2 25 -10 26 -10 8 4 -26 20 -40 19 -57 -2z"/>
<path d="M1088 1639 c6 -9 8 -20 4 -24 -4 -5 -2 -5 5 -2 6 4 27 -11 48 -35 21 -24 28 -30 17 -13 -11 17 -35 44 -53 60 -18 17 -28 23 -21 14z"/>
<path d="M3020 1630 c-6 -11 -8 -20 -6 -20 3 0 10 9 16 20 6 11 8 20 6 20 -3 0 -10 -9 -16 -20z"/>
<path d="M930 1603 c13 -18 25 -33 27 -33 8 0 -17 38 -33 51 -11 9 -9 2 6 -18z"/>
<path d="M570 1610 c0 -7 3 -10 7 -7 3 4 3 10 0 14 -4 3 -7 0 -7 -7z"/>
<path d="M820 1614 c0 -6 17 -26 38 -45 l37 -34 -35 40 c-19 22 -36 42 -37 44 -2 2 -3 0 -3 -5z"/>
<path d="M1218 1603 c38 -4 44 -8 62 -44 28 -54 35 -49 8 6 -22 44 -23 45 -67 43 l-46 -1 43 -4z"/>
<path d="M1294 1603 c7 -7 77 -5 85 3 2 2 -17 4 -44 4 -27 0 -45 -3 -41 -7z"/>
<path d="M1450 1603 c0 -5 10 -19 21 -33 17 -21 19 -22 10 -3 -15 31 -15 31 27 36 34 3 33 4 -10 5 -27 1 -48 -1 -48 -5z"/>
<path d="M1574 1599 c-3 -6 -1 -16 5 -22 8 -8 11 -6 11 7 0 16 11 17 114 14 63 -2 112 0 109 5 -7 12 -231 8 -239 -4z"/>
<path d="M1840 1603 c0 -5 10 -19 21 -33 17 -21 19 -22 10 -3 -15 31 -14 33 18 33 18 0 34 -8 45 -22 16 -23 16 -23 4 5 -10 24 -17 27 -55 27 -23 0 -43 -3 -43 -7z"/>
<path d="M2000 1603 c0 -5 10 -19 21 -33 17 -21 19 -22 10 -3 -15 31 -15 31 27 36 34 3 33 4 -10 5 -27 1 -48 -1 -48 -5z"/>
<path d="M2427 1604 c-3 -3 -1 -19 5 -35 6 -17 12 -28 14 -26 3 2 0 16 -5 31 l-11 26 136 0 c128 0 136 -1 123 -17 -13 -17 -13 -17 7 0 16 13 37 17 95 16 41 -1 64 -4 51 -6 -29 -6 -19 -23 14 -23 26 0 31 9 12 28 -9 9 -72 12 -223 12 -117 0 -214 -3 -218 -6z"/>
<path d="M2912 1580 c-1 -19 5 -48 13 -65 12 -24 13 -25 8 -5 -4 14 -10 43 -14 65 l-6 40 -1 -35z"/>
<path d="M2135 1590 c3 -5 8 -10 11 -10 2 0 4 5 4 10 0 6 -5 10 -11 10 -5 0 -7 -4 -4 -10z"/>
<path d="M581 1580 c0 -8 4 -24 9 -35 5 -13 9 -14 9 -5 0 8 -4 24 -9 35 -5 13 -9 14 -9 5z"/>
<path d="M1540 1581 c0 -6 4 -13 10 -16 6 -3 7 1 4 9 -7 18 -14 21 -14 7z"/>
<path d="M2090 1581 c0 -6 4 -13 10 -16 6 -3 7 1 4 9 -7 18 -14 21 -14 7z"/>
<path d="M1826 1567 c3 -10 9 -15 12 -12 3 3 0 11 -7 18 -10 9 -11 8 -5 -6z"/>
<path d="M2263 1573 c4 -3 10 -3 14 0 3 4 0 7 -7 7 -7 0 -10 -3 -7 -7z"/>
<path d="M2553 1573 c9 -2 25 -2 35 0 9 3 1 5 -18 5 -19 0 -27 -2 -17 -5z"/>
<path d="M3022 1560 c0 -14 2 -19 5 -12 2 6 2 18 0 25 -3 6 -5 1 -5 -13z"/>
<path d="M721 1559 c-1 -18 20 -82 25 -77 2 2 -3 24 -11 48 -7 25 -14 38 -14 29z"/>
<path d="M1755 1560 c3 -5 8 -10 11 -10 3 0 2 5 -1 10 -3 6 -8 10 -11 10 -3 0 -2 -4 1 -10z"/>
<path d="M2165 1520 c14 -27 28 -50 30 -50 3 0 -6 23 -20 50 -14 28 -28 50 -30 50 -3 0 6 -22 20 -50z"/>
<path d="M2800 1564 c0 -6 7 -19 16 -30 14 -18 14 -18 3 6 -14 31 -19 36 -19 24z"/>
<path d="M1326 1547 c3 -10 9 -15 12 -12 3 3 0 11 -7 18 -10 9 -11 8 -5 -6z"/>
<path d="M2240 1550 c0 -7 3 -10 7 -7 3 4 3 10 0 14 -4 3 -7 0 -7 -7z"/>
<path d="M2316 1544 c3 -10 14 -30 25 -44 l20 -25 -13 30 c-6 17 -17 36 -24 44 -11 12 -12 11 -8 -5z"/>
<path d="M2600 1554 c0 -6 7 -19 16 -30 14 -18 14 -18 3 6 -14 31 -19 36 -19 24z"/>
<path d="M1560 1541 c0 -6 4 -13 10 -16 6 -3 7 1 4 9 -7 18 -14 21 -14 7z"/>
<path d="M1680 1546 c0 -11 30 -66 36 -66 2 0 -3 15 -12 33 -19 36 -24 44 -24 33z"/>
<path d="M2736 1537 c3 -10 9 -15 12 -12 3 3 0 11 -7 18 -10 9 -11 8 -5 -6z"/>
<path d="M1867 1483 c33 -70 32 -67 38 -61 5 5 -53 118 -61 118 -2 0 8 -26 23 -57z"/>
<path d="M1886 1527 c3 -10 9 -15 12 -12 3 3 0 11 -7 18 -10 9 -11 8 -5 -6z"/>
<path d="M605 1519 c-4 -6 -5 -12 -2 -15 2 -3 7 2 10 11 7 17 1 20 -8 4z"/>
<path d="M890 1526 c0 -2 8 -10 18 -17 15 -13 16 -12 3 4 -13 16 -21 21 -21 13z"/>
<path d="M1053 1515 c-3 -9 -3 -19 1 -22 3 -4 6 1 6 10 0 23 19 21 49 -5 l26 -23 -24 28 c-27 30 -49 35 -58 12z"/>
<path d="M1185 1520 c3 -5 8 -10 11 -10 3 0 2 5 -1 10 -3 6 -8 10 -11 10 -3 0 -2 -4 1 -10z"/>
<path d="M1412 1525 c7 -21 59 -115 63 -115 3 0 -6 21 -19 48 -25 47 -51 86 -44 67z"/>
<path d="M2140 1490 c11 -22 23 -40 25 -40 3 0 -4 18 -15 40 -11 22 -23 40 -25 40 -3 0 4 -18 15 -40z"/>
<path d="M2440 1470 c17 -33 33 -60 35 -60 3 0 -8 27 -25 60 -17 33 -33 60 -35 60 -3 0 8 -27 25 -60z"/>
<path d="M2475 1480 c14 -27 28 -50 30 -50 3 0 -6 23 -20 50 -14 28 -28 50 -30 50 -3 0 6 -22 20 -50z"/>
<path d="M2540 1521 c0 -6 4 -13 10 -16 6 -3 7 1 4 9 -7 18 -14 21 -14 7z"/>
<path d="M3030 1514 c0 -10 5 -26 10 -34 8 -11 9 -7 4 15 -8 37 -14 45 -14 19z"/>
<path d="M1365 1470 c14 -27 28 -50 30 -50 3 0 -6 23 -20 50 -14 28 -28 50 -30 50 -3 0 6 -22 20 -50z"/>
<path d="M1780 1511 c0 -6 4 -13 10 -16 6 -3 7 1 4 9 -7 18 -14 21 -14 7z"/>
<path d="M2056 1507 c3 -10 9 -15 12 -12 3 3 0 11 -7 18 -10 9 -11 8 -5 -6z"/>
<path d="M1240 1490 c6 -11 13 -20 16 -20 2 0 0 9 -6 20 -6 11 -13 20 -16 20 -2 0 0 -9 6 -20z"/>
<path d="M1600 1470 c11 -22 23 -40 25 -40 3 0 -4 18 -15 40 -11 22 -23 40 -25 40 -3 0 4 -18 15 -40z"/>
<path d="M1985 1480 c9 -16 18 -30 21 -30 2 0 -2 14 -11 30 -9 17 -18 30 -21 30 -2 0 2 -13 11 -30z"/>
<path d="M2830 1506 c0 -11 30 -66 36 -66 2 0 -3 15 -12 33 -19 36 -24 44 -24 33z"/>
<path d="M1531 1458 c19 -38 31 -49 27 -26 -2 7 -9 19 -16 27 -7 7 -11 19 -9 26 3 6 -1 12 -8 12 -10 0 -9 -10 6 -39z"/>
<path d="M1630 1480 c6 -11 13 -20 16 -20 2 0 0 9 -6 20 -6 11 -13 20 -16 20 -2 0 0 -9 6 -20z"/>
<path d="M2716 1487 c3 -10 9 -15 12 -12 3 3 0 11 -7 18 -10 9 -11 8 -5 -6z"/>
<path d="M610 1485 c0 -5 5 -17 10 -25 5 -8 10 -10 10 -5 0 6 -5 17 -10 25 -5 8 -10 11 -10 5z"/>
<path d="M925 1480 c3 -5 8 -10 11 -10 3 0 2 5 -1 10 -3 6 -8 10 -11 10 -3 0 -2 -4 1 -10z"/>
<path d="M1320 1481 c0 -6 4 -13 10 -16 6 -3 7 1 4 9 -7 18 -14 21 -14 7z"/>
<path d="M2290 1450 c11 -22 23 -40 25 -40 3 0 -4 18 -15 40 -11 22 -23 40 -25 40 -3 0 4 -18 15 -40z"/>
<path d="M1061 1470 c0 -8 4 -22 9 -30 12 -18 12 -2 0 25 -6 13 -9 15 -9 5z"/>
<path d="M1230 1440 c11 -22 23 -40 25 -40 3 0 -4 18 -15 40 -11 22 -23 40 -25 40 -3 0 4 -18 15 -40z"/>
<path d="M1925 1450 c9 -16 18 -30 21 -30 2 0 -2 14 -11 30 -9 17 -18 30 -21 30 -2 0 2 -13 11 -30z"/>
<path d="M2090 1440 c11 -22 23 -40 25 -40 3 0 -4 18 -15 40 -11 22 -23 40 -25 40 -3 0 4 -18 15 -40z"/>
<path d="M755 1450 c9 -30 34 -80 40 -80 4 0 -35 92 -43 100 -2 3 -1 -6 3 -20z"/>
<path d="M1140 1450 c6 -11 13 -20 16 -20 2 0 0 9 -6 20 -6 11 -13 20 -16 20 -2 0 0 -9 6 -20z"/>
<path d="M2360 1461 c0 -6 4 -13 10 -16 6 -3 7 1 4 9 -7 18 -14 21 -14 7z"/>
<path d="M2812 1385 c23 -46 44 -83 46 -81 4 5 -76 166 -83 166 -3 0 14 -38 37 -85z"/>
<path d="M973 1402 c30 -58 62 -84 101 -81 6 0 -5 6 -24 13 -25 9 -42 25 -61 59 -39 72 -53 79 -16 9z"/>
<path d="M1810 1451 c0 -6 4 -13 10 -16 6 -3 7 1 4 9 -7 18 -14 21 -14 7z"/>
<path d="M2950 1451 c0 -6 4 -13 10 -16 6 -3 7 1 4 9 -7 18 -14 21 -14 7z"/>
<path d="M3050 1451 c0 -6 4 -13 10 -16 6 -3 7 1 4 9 -7 18 -14 21 -14 7z"/>
<path d="M1650 1441 c0 -6 4 -13 10 -16 6 -3 7 1 4 9 -7 18 -14 21 -14 7z"/>
<path d="M1740 1430 c6 -11 13 -20 16 -20 2 0 0 9 -6 20 -6 11 -13 20 -16 20 -2 0 0 -9 6 -20z"/>
<path d="M2600 1410 c11 -22 23 -40 25 -40 3 0 -4 18 -15 40 -11 22 -23 40 -25 40 -3 0 4 -18 15 -40z"/>
<path d="M630 1430 c0 -7 3 -10 7 -7 3 4 3 10 0 14 -4 3 -7 0 -7 -7z"/>
<path d="M2170 1431 c0 -6 4 -13 10 -16 6 -3 7 1 4 9 -7 18 -14 21 -14 7z"/>
<path d="M2220 1420 c6 -11 13 -20 16 -20 2 0 0 9 -6 20 -6 11 -13 20 -16 20 -2 0 0 -9 6 -20z"/>
<path d="M2755 1409 c13 -25 14 -34 4 -47 -12 -16 -12 -16 5 -1 17 15 17 19 2 48 -9 17 -19 31 -22 31 -2 0 3 -14 11 -31z"/>
<path d="M1081 1415 c0 -5 6 -21 14 -35 8 -14 14 -20 14 -15 0 6 -6 21 -14 35 -8 14 -14 21 -14 15z"/>
<path d="M1166 1407 c3 -10 9 -15 12 -12 3 3 0 11 -7 18 -10 9 -11 8 -5 -6z"/>
<path d="M2980 1400 c6 -11 13 -20 16 -20 2 0 0 9 -6 20 -6 11 -13 20 -16 20 -2 0 0 -9 6 -20z"/>
<path d="M3070 1416 c0 -11 30 -66 36 -66 2 0 -3 15 -12 33 -19 36 -24 44 -24 33z"/>
<path d="M640 1405 c0 -5 5 -17 10 -25 5 -8 10 -10 10 -5 0 6 -5 17 -10 25 -5 8 -10 11 -10 5z"/>
<path d="M1325 1400 l-40 -7 48 -2 c30 0 46 3 42 9 -3 6 -7 9 -8 9 -1 -1 -20 -5 -42 -9z"/>
<path d="M1485 1393 c12 -24 14 -53 4 -58 -5 -4 -14 -16 -19 -28 -7 -14 -2 -11 12 8 13 16 22 32 20 35 -1 3 14 7 34 10 21 3 39 11 40 18 1 7 0 8 -3 2 -8 -17 -65 -11 -80 8 -8 9 -12 11 -8 5z"/>
<path d="M1640 1390 c0 -7 3 -10 7 -7 3 4 3 10 0 14 -4 3 -7 0 -7 -7z"/>
<path d="M1765 1390 c3 -5 8 -10 11 -10 3 0 2 5 -1 10 -3 6 -8 10 -11 10 -3 0 -2 -4 1 -10z"/>
<path d="M1840 1390 c0 -7 3 -10 7 -7 3 4 3 10 0 14 -4 3 -7 0 -7 -7z"/>
<path d="M2035 1390 c3 -5 8 -10 11 -10 3 0 2 5 -1 10 -3 6 -8 10 -11 10 -3 0 -2 -4 1 -10z"/>
<path d="M2480 1391 c0 -6 4 -13 10 -16 6 -3 7 1 4 9 -7 18 -14 21 -14 7z"/>
<path d="M2531 1380 c14 -31 19 -36 19 -24 0 6 -7 19 -16 30 -14 18 -14 18 -3 -6z"/>
<path d="M2686 1387 c3 -10 9 -15 12 -12 3 3 0 11 -7 18 -10 9 -11 8 -5 -6z"/>
<path d="M1689 1374 c14 -30 38 -48 46 -34 3 5 0 10 -8 10 -8 0 -22 10 -31 23 -15 19 -15 20 -7 1z"/>
<path d="M1914 1378 c-4 -7 -3 -8 4 -4 12 7 16 16 8 16 -3 0 -8 -5 -12 -12z"/>
<path d="M2116 1373 c-6 -14 -5 -15 5 -6 7 7 10 15 7 18 -3 3 -9 -2 -12 -12z"/>
<path d="M2250 1371 c5 -11 15 -23 21 -27 6 -3 3 5 -6 20 -20 30 -30 35 -15 7z"/>
<path d="M1353 1373 c4 -3 10 -3 14 0 3 4 0 7 -7 7 -7 0 -10 -3 -7 -7z"/>
<path d="M2197 1366 c-4 -10 -5 -21 -2 -24 9 -9 17 6 13 25 -3 17 -4 17 -11 -1z"/>
<path d="M2339 1367 c5 -5 21 -7 37 -5 27 3 26 4 -8 9 -22 3 -34 1 -29 -4z"/>
<path d="M1276 1357 c3 -10 9 -15 12 -12 3 3 0 11 -7 18 -10 9 -11 8 -5 -6z"/>
<path d="M1327 1363 c-14 -13 -7 -51 14 -74 l20 -24 -17 28 c-9 15 -14 38 -12 52 6 27 5 29 -5 18z"/>
<path d="M1380 1366 c0 -2 8 -10 18 -17 15 -13 16 -12 3 4 -13 16 -21 21 -21 13z"/>
<path d="M1803 1363 c9 -2 23 -2 30 0 6 3 -1 5 -18 5 -16 0 -22 -2 -12 -5z"/>
<path d="M1930 1361 c0 -6 4 -13 10 -16 6 -3 7 1 4 9 -7 18 -14 21 -14 7z"/>
<path d="M1985 1340 c9 -16 18 -30 21 -30 2 0 -2 14 -11 30 -9 17 -18 30 -21 30 -2 0 2 -13 11 -30z"/>
<path d="M3028 1332 c19 -23 39 -45 45 -49 7 -4 -3 12 -21 35 -19 23 -39 45 -45 49 -7 4 3 -12 21 -35z"/>
<path d="M800 1356 c0 -11 30 -66 36 -66 2 0 -3 15 -12 33 -19 36 -24 44 -24 33z"/>
<path d="M1190 1357 c0 -14 34 -77 42 -77 4 0 -2 17 -14 38 -26 44 -28 47 -28 39z"/>
<path d="M1635 1350 c-3 -5 -1 -10 4 -10 6 0 11 5 11 10 0 6 -2 10 -4 10 -3 0 -8 -4 -11 -10z"/>
<path d="M2504 1346 c6 -17 2 -18 -51 -13 -35 3 -50 2 -38 -3 25 -11 105 -13 105 -2 0 4 -5 14 -11 22 -9 12 -10 12 -5 -4z"/>
<path d="M2592 1339 c-10 -16 -16 -18 -27 -9 -11 9 -12 7 -8 -9 3 -12 8 -21 12 -21 8 1 44 50 39 55 -2 2 -9 -5 -16 -16z"/>
<path d="M2707 1341 c3 -12 9 -21 14 -21 14 0 11 16 -5 29 -12 10 -13 8 -9 -8z"/>
<path d="M2910 1344 c0 -5 7 -18 15 -28 8 -11 15 -16 15 -10 0 5 -7 18 -15 28 -8 11 -15 16 -15 10z"/>
<path d="M670 1335 c0 -5 5 -17 10 -25 5 -8 10 -10 10 -5 0 6 -5 17 -10 25 -5 8 -10 11 -10 5z"/>
<path d="M2034 1328 c-4 -7 -3 -8 4 -4 7 4 12 9 12 12 0 8 -9 4 -16 -8z"/>
<path d="M1105 1320 c-19 -7 -19 -7 3 -14 26 -9 41 -1 26 13 -5 5 -18 5 -29 1z"/>
<path d="M1411 1307 c-1 -19 -8 -31 -23 -37 -16 -6 -18 -9 -7 -9 24 -1 41 24 36 51 -4 20 -4 20 -6 -5z"/>
<path d="M1445 1320 c3 -5 8 -10 11 -10 3 0 2 5 -1 10 -3 6 -8 10 -11 10 -3 0 -2 -4 1 -10z"/>
<path d="M1985 1260 c19 -38 38 -70 40 -70 3 0 -11 32 -30 70 -19 39 -38 70 -40 70 -3 0 11 -31 30 -70z"/>
<path d="M3130 1301 c5 -11 15 -23 21 -27 6 -3 3 5 -6 20 -20 30 -30 35 -15 7z"/>
<path d="M329 1289 c35 -11 70 -18 78 -14 31 11 6 19 -92 30 l-50 5 64 -21z"/>
<path d="M1300 1305 c0 -5 5 -17 10 -25 5 -8 10 -10 10 -5 0 6 -5 17 -10 25 -5 8 -10 11 -10 5z"/>
<path d="M2015 1299 c-4 -6 -5 -12 -2 -15 2 -3 7 2 10 11 7 17 1 20 -8 4z"/>
<path d="M696 1277 c3 -10 9 -15 12 -12 3 3 0 11 -7 18 -10 9 -11 8 -5 -6z"/>
<path d="M2784 1282 c5 -8 66 -4 66 4 0 2 -16 4 -36 4 -19 0 -33 -4 -30 -8z"/>
<path d="M2950 1286 c0 -2 15 -6 34 -8 19 -2 32 0 30 4 -5 8 -64 12 -64 4z"/>
<path d="M425 1270 c-8 -13 5 -13 25 0 13 8 13 10 -2 10 -9 0 -20 -4 -23 -10z"/>
<path d="M1260 1270 c8 -5 20 -10 25 -10 6 0 3 5 -5 10 -8 5 -19 10 -25 10 -5 0 -3 -5 5 -10z"/>
<path d="M1917 1245 c9 -19 18 -33 21 -31 4 5 -26 66 -33 66 -3 0 3 -16 12 -35z"/>
<path d="M460 1260 c-18 -12 -2 -12 25 0 13 6 15 9 5 9 -8 0 -22 -4 -30 -9z"/>
<path d="M525 1250 c27 -12 43 -12 25 0 -8 5 -22 9 -30 9 -10 0 -8 -3 5 -9z"/>
<path d="M1310 1250 c20 -13 33 -13 25 0 -3 6 -14 10 -23 10 -15 0 -15 -2 -2 -10z"/>
<path d="M2818 1253 c12 -2 32 -2 45 0 12 2 2 4 -23 4 -25 0 -35 -2 -22 -4z"/>
<path d="M2993 1253 c9 -2 23 -2 30 0 6 3 -1 5 -18 5 -16 0 -22 -2 -12 -5z"/>
<path d="M3165 1182 c44 -45 81 -82 82 -82 11 0 -22 36 -86 95 l-76 69 80 -82z"/>
<path d="M3160 1256 c0 -2 8 -10 18 -17 15 -13 16 -12 3 4 -13 16 -21 21 -21 13z"/>
<path d="M510 1230 c8 -5 20 -10 25 -10 6 0 3 5 -5 10 -8 5 -19 10 -25 10 -5 0 -3 -5 5 -10z"/>
<path d="M586 1231 c10 -10 72 -26 63 -17 -4 4 -21 11 -39 16 -19 5 -29 6 -24 1z"/>
<path d="M860 1234 c0 -5 7 -18 15 -28 8 -11 15 -16 15 -10 0 5 -7 18 -15 28 -8 11 -15 16 -15 10z"/>
<path d="M2970 1234 c0 -6 7 -19 16 -30 14 -18 14 -18 3 6 -14 31 -19 36 -19 24z"/>
<path d="M580 1200 c19 -11 40 -19 45 -19 6 0 -6 8 -25 19 -19 11 -39 19 -45 19 -5 0 6 -8 25 -19z"/>
<path d="M3219 1182 c17 -22 38 -45 48 -53 10 -8 -2 10 -26 39 -51 60 -68 71 -22 14z"/>
<path d="M663 1203 c4 -3 10 -3 14 0 3 4 0 7 -7 7 -7 0 -10 -3 -7 -7z"/>
<path d="M695 1190 c3 -5 13 -10 21 -10 8 0 12 5 9 10 -3 6 -13 10 -21 10 -8 0 -12 -4 -9 -10z"/>
<path d="M2005 1070 c36 -71 67 -130 70 -130 3 0 -24 59 -60 130 -36 72 -67 130 -70 130 -3 0 24 -58 60 -130z"/>
<path d="M2030 1171 c0 -6 4 -13 10 -16 6 -3 7 1 4 9 -7 18 -14 21 -14 7z"/>
<path d="M912 1133 c7 -18 16 -33 20 -33 13 0 9 13 -12 40 l-20 25 12 -32z"/>
<path d="M2936 1147 c3 -10 9 -15 12 -12 3 3 0 11 -7 18 -10 9 -11 8 -5 -6z"/>
<path d="M3015 1140 c8 -27 22 -46 29 -39 3 3 -4 18 -15 34 -19 28 -20 28 -14 5z"/>
<path d="M700 1146 c0 -3 14 -12 30 -21 17 -9 30 -13 30 -11 0 3 -13 12 -30 21 -16 9 -30 13 -30 11z"/>
<path d="M2090 1060 c17 -33 33 -60 35 -60 3 0 -8 27 -25 60 -17 33 -33 60 -35 60 -3 0 8 -27 25 -60z"/>
<path d="M2955 1110 c3 -5 15 -10 25 -10 10 0 22 5 25 10 4 6 -7 10 -25 10 -18 0 -29 -4 -25 -10z"/>
<path d="M775 1100 c3 -5 8 -10 11 -10 3 0 2 5 -1 10 -3 6 -8 10 -11 10 -3 0 -2 -4 1 -10z"/>
<path d="M3315 1072 c21 -23 35 -42 31 -42 -5 0 -3 -7 4 -15 7 -8 16 -12 21 -9 5 3 9 -1 9 -8 0 -7 20 -25 43 -40 23 -15 53 -35 67 -44 25 -17 -8 16 -63 62 -14 12 -54 48 -89 80 -36 34 -46 41 -23 16z m50 -52 c3 -5 4 -10 1 -10 -3 0 -8 5 -11 10 -3 6 -4 10 -1 10 3 0 8 -4 11 -10z"/>
<path d="M3260 1097 c0 -2 15 -16 33 -33 l32 -29 -29 33 c-28 30 -36 37 -36 29z"/>
<path d="M805 1083 c26 -24 88 -65 73 -47 -9 10 -32 28 -50 38 -18 10 -28 15 -23 9z"/>
<path d="M960 1050 c6 -11 13 -20 16 -20 2 0 0 9 -6 20 -6 11 -13 20 -16 20 -2 0 0 -9 6 -20z"/>
<path d="M996 925 c54 -55 112 -116 127 -135 l28 -35 -18 33 c-10 18 -29 45 -43 61 -14 16 -26 35 -28 42 -2 8 -8 19 -13 24 -7 7 -8 3 -3 -10 4 -12 -13 -1 -47 30 -101 95 -103 90 -3 -10z"/>
<path d="M990 1000 c6 -11 13 -20 16 -20 2 0 0 9 -6 20 -6 11 -13 20 -16 20 -2 0 0 -9 6 -20z"/>
<path d="M1013 955 c0 -8 4 -12 9 -9 5 3 6 10 3 15 -9 13 -12 11 -12 -6z"/>
<path d="M2152 945 c7 -23 79 -155 83 -155 6 0 -58 127 -75 150 -6 8 -10 11 -8 5z"/>
<path d="M2096 897 c3 -10 9 -15 12 -12 3 3 0 11 -7 18 -10 9 -11 8 -5 -6z"/>
<path d="M1430 889 c-34 -10 86 -9 170 1 60 7 57 8 -40 7 -58 0 -116 -4 -130 -8z"/>
<path d="M1684 888 c-3 -4 13 -8 35 -8 23 0 41 2 41 4 0 8 -71 12 -76 4z"/>
<path d="M1593 873 c9 -2 23 -2 30 0 6 3 -1 5 -18 5 -16 0 -22 -2 -12 -5z"/>
<path d="M1778 873 c6 -2 18 -2 25 0 6 3 1 5 -13 5 -14 0 -19 -2 -12 -5z"/>
<path d="M3555 870 c3 -5 8 -10 11 -10 3 0 2 5 -1 10 -3 6 -8 10 -11 10 -3 0 -2 -4 1 -10z"/>
<path d="M1648 863 c6 -2 18 -2 25 0 6 3 1 5 -13 5 -14 0 -19 -2 -12 -5z"/>
<path d="M1838 863 c6 -2 18 -2 25 0 6 3 1 5 -13 5 -14 0 -19 -2 -12 -5z"/>
<path d="M1708 853 c6 -2 18 -2 25 0 6 3 1 5 -13 5 -14 0 -19 -2 -12 -5z"/>
<path d="M1888 853 c7 -3 16 -2 19 1 4 3 -2 6 -13 5 -11 0 -14 -3 -6 -6z"/>
<path d="M1758 843 c7 -3 16 -2 19 1 4 3 -2 6 -13 5 -11 0 -14 -3 -6 -6z"/>
<path d="M1923 843 c4 -3 10 -3 14 0 3 4 0 7 -7 7 -7 0 -10 -3 -7 -7z"/>
<path d="M2135 820 c9 -17 13 -36 9 -43 -5 -9 -4 -9 5 -1 10 9 9 18 -3 43 -9 17 -19 31 -22 31 -2 0 3 -14 11 -30z"/>
<path d="M1798 833 c7 -3 16 -2 19 1 4 3 -2 6 -13 5 -11 0 -14 -3 -6 -6z"/>
<path d="M1963 833 c4 -3 10 -3 14 0 3 4 0 7 -7 7 -7 0 -10 -3 -7 -7z"/>
<path d="M1833 823 c4 -3 10 -3 14 0 3 4 0 7 -7 7 -7 0 -10 -3 -7 -7z"/>
<path d="M2000 820 c8 -5 22 -9 30 -9 10 0 8 3 -5 9 -27 12 -43 12 -25 0z"/>
<path d="M1880 810 c8 -5 22 -9 30 -9 10 0 8 3 -5 9 -27 12 -43 12 -25 0z"/>
<path d="M2053 803 c4 -3 10 -3 14 0 3 4 0 7 -7 7 -7 0 -10 -3 -7 -7z"/>
<path d="M1933 793 c4 -3 10 -3 14 0 3 4 0 7 -7 7 -7 0 -10 -3 -7 -7z"/>
<path d="M2083 793 c4 -3 10 -3 14 0 3 4 0 7 -7 7 -7 0 -10 -3 -7 -7z"/>
<path d="M1963 783 c4 -3 10 -3 14 0 3 4 0 7 -7 7 -7 0 -10 -3 -7 -7z"/>
<path d="M2113 783 c4 -3 10 -3 14 0 3 4 0 7 -7 7 -7 0 -10 -3 -7 -7z"/>
<path d="M2005 770 c27 -12 43 -12 25 0 -8 5 -22 9 -30 9 -10 0 -8 -3 5 -9z"/>
<path d="M2060 750 c8 -5 20 -10 25 -10 6 0 3 5 -5 10 -8 5 -19 10 -25 10 -5 0 -3 -5 5 -10z"/>
<path d="M2265 730 c9 -16 18 -30 21 -30 2 0 -2 14 -11 30 -9 17 -18 30 -21 30 -2 0 2 -13 11 -30z"/>
<path d="M2170 706 c0 -2 7 -7 16 -10 8 -3 12 -2 9 4 -6 10 -25 14 -25 6z"/>
<path d="M2245 665 c36 -29 55 -37 49 -21 -3 9 -9 15 -12 14 -4 -1 -18 3 -32 10 -24 13 -24 12 -5 -3z"/>
<path d="M2305 660 c3 -5 8 -10 11 -10 3 0 2 5 -1 10 -3 6 -8 10 -11 10 -3 0 -2 -4 1 -10z"/>
<path d="M2317 633 c-9 -8 22 -43 37 -43 6 1 1 9 -11 19 -12 10 -19 21 -16 25 4 3 4 6 1 6 -2 0 -8 -3 -11 -7z"/>
</g>


</svg>